<svg width="101" height="20" viewBox="0 0 101 20" fill="none" xmlns="http://www.w3.org/2000/svg">
<path d="M0 19.5973V0.375839H8.86861C13.8906 0.375839 17.016 3.0604 17.016 7.19463C17.016 11.3289 13.8639 14.0134 8.81518 14.0134H5.60966V19.5973H0ZM5.60966 9.93289H8.2275C10.1241 9.93289 11.3796 8.85906 11.3796 7.19463C11.3796 5.5302 10.1241 4.45638 8.2275 4.45638H5.60966V9.93289Z" fill="white"/>
<path d="M29.0592 20C22.6482 20 18.3207 16.1074 18.3207 9.98658C18.3207 3.86577 22.6482 0 29.0592 0C35.4435 0 39.771 3.86577 39.771 9.98658C39.771 16.1074 35.4435 20 29.0592 20ZM29.0592 15.3557C32.0777 15.3557 34.1346 13.2349 34.1346 9.98658C34.1346 6.7651 32.0777 4.61745 29.0592 4.61745C26.0407 4.61745 23.9571 6.7651 23.9571 9.98658C23.9571 13.2349 26.0407 15.3557 29.0592 15.3557Z" fill="white"/>
<path d="M51.7731 20C45.7361 20 41.3552 15.9463 41.3552 9.98658C41.3552 4.02684 45.7361 0 51.7731 0C56.902 0 60.9356 3.0604 61.5233 7.57047L56.2876 8.13423C55.8602 6.09396 54.0437 4.61745 51.9334 4.61745C48.995 4.61745 46.9916 6.7651 46.9916 9.98658C47.0183 13.2081 49.0217 15.3557 51.9067 15.3557C53.9903 15.3557 55.8602 13.906 56.3143 11.8926L61.55 12.5101C61.0691 16.9664 57.0088 20 51.7731 20Z" fill="white"/>
<path d="M63.8854 19.5973V0.375839H69.5218V7.86577H69.7889L75.0513 0.375839H81.7028L74.6774 9.5302L81.7829 19.5973H75.1315L69.7889 11.4094H69.5218V19.5973H63.8854Z" fill="white"/>
<path d="M88.8724 19.5973V13.047L82.221 0.375839H88.0711L91.5437 8.10738H91.8108L95.0698 0.375839H101L94.5088 13.047V19.5973H88.8724Z" fill="white"/>
</svg>