<svg width="848" height="848" viewBox="0 0 848 848" fill="none" xmlns="http://www.w3.org/2000/svg" xmlns:xlink="http://www.w3.org/1999/xlink"><defs><style>@font-face { font-family: "NBA"; src: url("https://static.duckee.xyz/NBA-Pacers.woff2"); }.ta { font: bold 80px Arial; fill: white; letter-spacing: -0.03em; }.ta2 { font-size: 18px; fill: black; } .ta3 { font-size: 24px; fill: black; } .tn { font: 47px NBA, sans-serif; letter-spacing: -0.03em; fill: white; }.tn2 { fill: #828282; font-size: 24px; } .tn3 { fill: #646464; font-size: 24px; }</style><pattern id="nbalogo" patternContentUnits="objectBoundingBox" width="1" height="1"><use xlink:href="#inba" transform="scale(0.0026178 0.00152439)" /></pattern><clipPath id="cb"><rect width="848" height="848" fill="white" /></clipPath><image id="inba" width="382" height="656" xlink:href="https://static.duckee.xyz/nba.png" /></defs><g clip-path="url(#cb)"><path d="M24 0H535C535 17.6731 549.327 32 567 32V816C549.327 816 535 830.327 535 848H24V0Z" fill="#F3F3F3" /><path d="M16 0.5L239.5 0.5L239.5 847.5H16C7.43959 847.5 0.5 840.56 0.5 832L0.5 16C0.5 7.43957 7.43959 0.5 16 0.5Z" fill="black" stroke="#F5F5F5" /><rect x="24" y="494" width="191" height="328" fill="url(#nbalogo)" /><path d="M567 35L567 813" stroke="#CECECE" stroke-width="3" stroke-linecap="round" stroke-dasharray="40 40" /><path d="M599 -0.000976562C599 17.6721 584.673 31.999 567 31.999V815.999C584.673 815.999 599 830.326 599 847.999H832C840.837 847.999 848 840.836 848 831.999V15.999C848 7.16247 840.837 -0.000976562 832 -0.000976562H599Z" fill="#F5F5F5" /><line x1="567" y1="283.999" x2="848" y2="283.999" stroke="white" stroke-width="2" /><circle cx="708" cy="284.999" r="56" transform="rotate(-90 708 284.999)" stroke="white" stroke-width="2" /><circle cx="704" cy="455.999" r="50" transform="rotate(-90 704 455.999)" stroke="white" stroke-width="2" /><path d="M693.239 602.009L693.172 602H693.104H599L599 494C599 433.801 647.801 385 708 385C768.199 385 817 433.801 817 494V602H722.896H722.828L722.761 602.009C717.935 602.662 713.007 603 708 603C702.993 603 698.065 602.662 693.239 602.009Z" stroke="white" stroke-width="2" /><path d="M722.761 -32.009L722.828 -32L722.896 -32L817 -32L817 76C817 136.199 768.199 185 708 185C647.801 185 599 136.199 599 76L599 -32L693.104 -32L693.172 -32L693.239 -32.009C698.065 -32.6625 702.993 -33 708 -33C713.007 -33 717.935 -32.6625 722.761 -32.009Z" stroke="white" stroke-width="2" /><rect x="654" y="601.999" width="145" height="100" transform="rotate(-90 654 601.999)" stroke="white" stroke-width="2" /><rect x="654" y="118.999" width="118" height="100" transform="rotate(-90 654 118.999)" stroke="white" stroke-width="2" /><circle cx="704" cy="113.999" r="50" transform="rotate(90 704 113.999)" stroke="white" stroke-width="2" /><path d="M567 35L567 813" stroke="#CECECE" stroke-width="3" stroke-linecap="round" stroke-dasharray="40 40" /><rect x="771" width="46" height="240" fill="#E73325" /><rect x="714" width="46" height="198" fill="#E73325"/><text transform="translate(718 189) rotate(-90)" class="tn"><tspan x="0.430511" y="37.694">2023 NBA</tspan></text><text transform="translate(775 231) rotate(-90)" class="tn"><tspan x="0.565628" y="37.694">GAME TICKET</tspan></text><text transform="translate(24 60)" fill="#828282" font-family="NBA" font-size="36">Upcoming</text><text transform="translate(20 80)" class="ta"><tspan x="0" y="73.7344">BOS</tspan></text><text transform="translate(20 172)" class="ta"><tspan x="0" y="73.7344">0</tspan></text><text transform="translate(20 284)" class="ta"><tspan x="0" y="73.7344">MIA</tspan></text><text transform="translate(20 376)" class="ta"><tspan x="0" y="73.7344">0</tspan></text><text transform="translate(607 556) rotate(-90)" class="tn tn2"><tspan x="0" y="19.248">DATE</tspan></text><text transform="translate(775.5 556) rotate(-90)" class="ta ta2"><tspan x="0" y="16.7402">TD GARDEN,</tspan><tspan x="0" y="40">100 Legends Way, Boston, MA</tspan></text><text transform="translate(743 556) rotate(-90)" class="tn tn2"><tspan x="0" y="19.248">LOCATION</tspan></text><text transform="translate(639 556) rotate(-90)" class="ta ta2"><tspan x="0" y="16.7402">WEDNESDAY,</tspan><tspan x="0" y="40">MAY 27 PM 7:00</tspan></text><image x="602" y="592" width="215" height="215" preserveAspectRatio="xMidYMid slice" href="https://pocky.deno.dev/api/qrcode/0"/><image x="256" y="66" width="295" height="295" preserveAspectRatio="xMidYMid slice" href="https://a.espncdn.com/i/teamlogos/nba/500/scoreboard/bos.png"/><image x="256" y="487" width="295" height="295" preserveAspectRatio="xMidYMid slice" href="https://a.espncdn.com/i/teamlogos/nba/500/scoreboard/mia.png"/></g></svg>